<?xml version="1.0" encoding="UTF-8"?>
<svg xmlns="http://www.w3.org/2000/svg" xmlns:xlink="http://www.w3.org/1999/xlink" width="24pt" height="24pt" viewBox="0 0 24 24" version="1.1">
<g id="surface1">
<path style=" stroke:none;fill-rule:nonzero;fill:rgb(0%,0%,0%);fill-opacity:1;" d="M 11.84375 0 C 5.300781 0 0 5.300781 0 11.84375 C 0 18.382812 5.300781 23.683594 11.84375 23.683594 C 18.382812 23.683594 23.683594 18.382812 23.683594 11.84375 C 23.683594 5.300781 18.382812 0 11.84375 0 Z M 17.078125 15.769531 C 17.078125 16.515625 16.46875 17.125 15.71875 17.125 C 14.96875 17.125 14.363281 16.515625 14.363281 15.769531 L 14.363281 12.929688 C 14.304688 12.996094 14.234375 13.054688 14.15625 13.101562 L 7.753906 16.792969 C 7.625 16.867188 7.488281 16.90625 7.347656 16.90625 C 7.203125 16.90625 7.0625 16.867188 6.9375 16.792969 C 6.683594 16.648438 6.527344 16.378906 6.527344 16.085938 L 6.527344 8.695312 C 6.527344 8.402344 6.683594 8.128906 6.9375 7.984375 C 7.1875 7.839844 7.5 7.839844 7.753906 7.984375 L 14.15625 11.683594 C 14.234375 11.726562 14.304688 11.785156 14.363281 11.851562 L 14.363281 8.738281 C 14.363281 7.984375 14.96875 7.375 15.71875 7.375 C 16.46875 7.375 17.078125 7.984375 17.078125 8.738281 Z M 17.078125 15.769531 "/>
</g>
</svg>
