<?xml version="1.0" encoding="UTF-8"?>
<svg xmlns="http://www.w3.org/2000/svg" xmlns:xlink="http://www.w3.org/1999/xlink" width="24pt" height="24pt" viewBox="0 0 24 24" version="1.1">
<g id="surface1">
<path style=" stroke:none;fill-rule:nonzero;fill:rgb(0%,0%,0%);fill-opacity:1;" d="M 12 0 C 5.371094 0 0 5.371094 0 12 C 0 18.628906 5.371094 24 12 24 C 18.628906 24 24 18.628906 24 12 C 24 5.371094 18.628906 0 12 0 Z M 17.386719 16.300781 C 17.386719 16.597656 17.230469 16.871094 16.972656 17.019531 C 16.84375 17.09375 16.699219 17.132812 16.558594 17.132812 C 16.414062 17.132812 16.269531 17.09375 16.140625 17.019531 L 9.65625 13.273438 C 9.574219 13.226562 9.507812 13.167969 9.445312 13.101562 L 9.445312 15.976562 C 9.445312 16.738281 8.832031 17.355469 8.070312 17.355469 C 7.3125 17.355469 6.695312 16.738281 6.695312 15.976562 L 6.695312 8.851562 C 6.695312 8.09375 7.3125 7.476562 8.070312 7.476562 C 8.832031 7.476562 9.445312 8.09375 9.445312 8.851562 L 9.445312 12.007812 C 9.507812 11.941406 9.574219 11.882812 9.65625 11.835938 L 16.140625 8.089844 C 16.398438 7.941406 16.714844 7.941406 16.972656 8.089844 C 17.230469 8.238281 17.386719 8.511719 17.386719 8.808594 Z M 17.386719 16.300781 "/>
</g>
</svg>
